<svg width="168" height="168" viewBox="0 0 168 168" fill="none" xmlns="http://www.w3.org/2000/svg">
<path d="M0.496216 22.3271C0.496216 11.8342 11.2964 4.81546 20.8849 9.07702V9.07702C50.878 22.4073 85.1144 22.4073 115.108 9.07702V9.07702C124.696 4.81546 135.496 11.8342 135.496 22.3271V103.015C135.496 118.1 135.496 125.643 130.81 130.329C126.124 135.015 118.581 135.015 103.496 135.015H32.4962C17.4113 135.015 9.8688 135.015 5.18251 130.329C0.496216 125.643 0.496216 118.1 0.496216 103.015V22.3271Z" fill="#22C55E" fill-opacity="0.25"/>
<path d="M8.5 30.3317C8.5 19.8388 19.3002 12.8201 28.8887 17.0817V17.0817C58.8818 30.4119 93.1182 30.4119 123.111 17.0817V17.0817C132.7 12.8201 143.5 19.8388 143.5 30.3317V111.02C143.5 126.105 143.5 133.647 138.814 138.334C134.127 143.02 126.585 143.02 111.5 143.02H40.5C25.4151 143.02 17.8726 143.02 13.1863 138.334C8.5 133.647 8.5 126.105 8.5 111.02V30.3317Z" fill="#22C55E" fill-opacity="0.25"/>
<path d="M16.5 38.3317C16.5 27.8388 27.3002 20.8201 36.8887 25.0817V25.0817C66.8818 38.4119 101.118 38.4119 131.111 25.0817V25.0817C140.7 20.8201 151.5 27.8388 151.5 38.3317V119.02C151.5 134.105 151.5 141.647 146.814 146.334C142.127 151.02 134.585 151.02 119.5 151.02H48.5C33.4151 151.02 25.8726 151.02 21.1863 146.334C16.5 141.647 16.5 134.105 16.5 119.02V38.3317Z" fill="#22C55E" fill-opacity="0.25"/>
<path d="M24.5 46.3317C24.5 35.8388 35.3002 28.8201 44.8887 33.0817V33.0817C74.8818 46.4119 109.118 46.4119 139.111 33.0817V33.0817C148.7 28.8201 159.5 35.8388 159.5 46.3317V127.02C159.5 142.105 159.5 149.647 154.814 154.334C150.127 159.02 142.585 159.02 127.5 159.02H56.5C41.4151 159.02 33.8726 159.02 29.1863 154.334C24.5 149.647 24.5 142.105 24.5 127.02V46.3317Z" fill="#22C55E" fill-opacity="0.25"/>
<path d="M32.5 54.3317C32.5 43.8388 43.3002 36.8201 52.8887 41.0817V41.0817C82.8818 54.4119 117.118 54.4119 147.111 41.0817V41.0817C156.7 36.8201 167.5 43.8388 167.5 54.3317V135.02C167.5 150.105 167.5 157.647 162.814 162.334C158.127 167.02 150.585 167.02 135.5 167.02H64.5C49.4151 167.02 41.8726 167.02 37.1863 162.334C32.5 157.647 32.5 150.105 32.5 135.02V54.3317Z" fill="#22C55E" fill-opacity="0.25"/>
</svg>
