<svg width="104" height="39" viewBox="0 0 104 39" fill="none" xmlns="http://www.w3.org/2000/svg">
<path d="M1.49365 33.2279C1.78046 33.9417 1.60641 35.7898 2.51388 35.8937C5.64487 36.2523 9.00364 28.5569 10.7018 26.4633C14.3434 21.9734 11.3151 32.9511 11.2784 34.5539C11.1702 39.291 19.889 27.5548 21.1712 26.2107C24.424 22.8009 23.3114 26.5121 23.388 29.3454C23.5082 33.7961 33.5166 25.7534 34.2218 25.2423C39.4337 21.4646 36.7452 23.984 34.6302 27.3729C33.3993 29.3454 32.9323 30.3513 32.0416 32.1893C31.1509 34.0272 29.9491 36.425 31.6901 36.6702C35.1004 37.1505 38.6972 32.0862 40.6949 29.7806C41.2028 29.1944 39.7239 33.1115 40.515 33.6092C43.9551 35.7737 50.5132 24.2063 51.6735 22.4771C52.3797 21.4247 58.0363 10.666 56.2313 14.9847C54.0261 20.2609 50.6954 25.5377 50.3213 31.3667C49.9165 37.6742 57.1724 30.2183 58.5776 28.4439C62.6839 23.2586 66.5448 17.4079 67.7911 10.836C68.0319 9.56609 66.3195 15.4429 65.9342 16.4421C63.9567 21.5698 60.908 27.2195 60.6774 32.7965C60.314 41.5889 74.838 27.7171 76.4072 24.8972C81.5779 15.6056 70.1534 25.3479 69.7982 30.5533C69.035 41.7407 84.4382 28.6501 87.169 26.9684C88.5267 26.1324 90.0202 25.2101 91.2823 24.2476C92.7515 23.1272 87.9105 26.4196 87.322 26.9722C85.6494 28.5427 79.6507 34.231 81.6577 37.1141C83.9116 40.352 89.7741 33.7712 90.8109 32.4451C97.6982 23.6365 99.9596 12.286 102.645 1.74191C103.32 -0.909155 98.2695 4.67057 97.3497 5.40241C88.7083 12.2779 77.9837 18.9697 66.626 18.9697" stroke="#000" stroke-width="2" stroke-linecap="round" stroke-linejoin="round"/>
</svg>
